<?xml version="1.0" standalone="no"?>
<!DOCTYPE svg PUBLIC "-//W3C//DTD SVG 20010904//EN"
 "http://www.w3.org/TR/2001/REC-SVG-20010904/DTD/svg10.dtd">
<svg version="1.0" xmlns="http://www.w3.org/2000/svg"
 width="1024.000000pt" height="1024.000000pt" viewBox="0 0 1024.000000 1024.000000"
 preserveAspectRatio="xMidYMid meet">
<metadata>
Created by potrace 1.14, written by Peter Selinger 2001-2017
</metadata>
<g transform="translate(0.000000,1024.000000) scale(0.100000,-0.100000)"
fill="#000000" stroke="none">
<path d="M1860 10234 c-299 -30 -524 -91 -754 -206 -585 -293 -1001 -875
-1088 -1523 -19 -148 -19 -6622 0 -6770 119 -887 830 -1598 1717 -1717 148
-19 6622 -19 6770 0 887 119 1598 830 1717 1717 19 148 19 6622 0 6770 -107
793 -691 1458 -1462 1664 -264 70 52 65 -3585 66 -1804 1 -3296 0 -3315 -1z
m3480 -1886 c326 -161 674 -848 1041 -2053 233 -766 416 -1180 671 -1520 400
-533 881 -628 1383 -274 145 103 345 312 467 489 16 24 17 -82 17 -1822 l1
-1848 -3815 0 -3815 0 0 1850 0 1851 58 -39 c226 -153 529 -277 804 -329 130
-24 411 -24 530 0 199 40 382 121 538 238 117 87 170 138 268 254 206 245 366
565 497 996 255 834 391 1211 570 1574 184 375 357 586 533 652 62 22 187 13
252 -19z"/>
</g>
</svg>
